Coordinates
version=1
nRows=32
nColumns=22
inDegrees=yes

Units are S.I. units (second, meters, Newtons, ...)
If the header above contains a line with 'inDegrees', this indicates whether rotational values are in degrees (yes) or radians (no).

endheader
time	pelvis_tilt	pelvis_list	pelvis_rotation	pelvis_tx	pelvis_ty	pelvis_tz	hip_flexion_r	hip_adduction_r	hip_rotation_r	knee_angle_r	ankle_angle_r	subtalar_angle_r	hip_flexion_l	hip_adduction_l	hip_rotation_l	knee_angle_l	ankle_angle_l	subtalar_angle_l	lumbar_extension	lumbar_bending	lumbar_rotation
      1.46000000	     -1.60766630	     -4.87290295	     -1.67744220	     -1.22307185	      1.00640387	     -0.40863903	     -3.70194716	     11.12953834	     -1.31410000	     -9.95808755	     13.94064369	     -6.97300846	     27.96106623	     -5.99511311	      0.37591370	    -36.30169711	     10.47928077	      4.29349722	    -14.76039603	      2.30718855	      8.40524423
      1.47000000	     -1.67011790	     -4.80667172	     -1.78027843	     -1.21947237	      1.00576238	     -0.40821326	     -3.81376599	     11.06295000	     -1.23802475	    -10.07207753	     14.19710711	     -6.97128524	     28.25158768	     -5.77278381	      0.59963030	    -35.05571047	     10.15776209	      4.65675074	    -14.78038415	      2.19125820	      8.43121609
      1.48000000	     -1.72789477	     -4.75598084	     -1.87916302	     -1.21568748	      1.00508896	     -0.40780870	     -3.97987408	     11.01331462	     -1.10087528	    -10.11652193	     14.44099996	     -6.95017207	     28.50732532	     -5.55521919	      0.88182989	    -33.77207703	      9.82886406	      5.12297942	    -14.79236292	      2.09599572	      8.42463279
      1.49000000	     -1.80654251	     -4.69867984	     -1.99736032	     -1.21176306	      1.00435701	     -0.40740849	     -4.13072352	     10.95262984	     -0.95049152	    -10.16629315	     14.67067444	     -6.94460818	     28.74640441	     -5.33114759	      1.19408358	    -32.44144668	      9.41343804	      5.35163110	    -14.77259863	      1.99305789	      8.41570271
      1.50000000	     -1.83376270	     -4.62929990	     -2.12430097	     -1.20767320	      1.00367129	     -0.40704737	     -4.33858331	     10.86676489	     -0.85630160	    -10.23219636	     14.94498642	     -6.89413348	     28.88497337	     -5.09002964	      1.55448314	    -31.06922899	      9.03912952	      5.89769196	    -14.80831977	      1.87750247	      8.42825576
      1.51000000	     -1.89721452	     -4.56676189	     -2.27706623	     -1.20346627	      1.00289420	     -0.40665612	     -4.51256539	     10.78657899	     -0.73573638	    -10.30630485	     15.19359444	     -6.86675877	     29.02954673	     -4.86568801	      1.95172499	    -29.67641805	      8.60274011	      6.19618123	    -14.79678636	      1.76572454	      8.44387040
      1.52000000	     -1.92993167	     -4.51020200	     -2.43456367	     -1.19906755	      1.00212384	     -0.40628421	     -4.76118085	     10.70712849	     -0.58865588	    -10.32600457	     15.45926267	     -6.79416452	     29.10567093	     -4.64785339	      2.40464652	    -28.27734752	      8.22579920	      6.63691404	    -14.81160517	      1.66368032	      8.44939784
      1.53000000	     -1.98535468	     -4.45403819	     -2.62717684	     -1.19454593	      1.00128145	     -0.40587803	     -4.97463774	     10.62170426	     -0.44866287	    -10.38518977	     15.71175792	     -6.74219451	     29.17292799	     -4.44836572	      2.89242085	    -26.88425157	      7.84367803	      6.92578390	    -14.79921235	      1.55636323	      8.47632034
      1.54000000	     -2.05630705	     -4.41414608	     -2.84086210	     -1.18984515	      1.00036408	     -0.40544158	     -5.21308380	     10.55307052	     -0.23644173	    -10.39281022	     15.96523843	     -6.69199490	     29.23486733	     -4.27874354	      3.43748610	    -25.53417576	      7.52191640	      7.15871747	    -14.75868575	      1.46721379	      8.48541793
      1.55000000	     -2.10093746	     -4.37026853	     -3.07440567	     -1.18497922	      0.99944612	     -0.40501247	     -5.48046379	     10.46979236	     -0.03568083	    -10.42152359	     16.22547795	     -6.62036253	     29.23874138	     -4.11894063	      4.02816766	    -24.22530884	      7.27685953	      7.41247800	    -14.74514124	      1.37436389	      8.51285020
      1.56000000	     -2.07792437	     -4.32626139	     -3.33666643	     -1.17993405	      0.99860493	     -0.40456352	     -5.81757863	     10.37190825	      0.13676078	    -10.48005512	     16.46640804	     -6.48032039	     29.13645630	     -3.97811965	      4.66396104	    -22.97164422	      7.12168214	      7.74972319	    -14.80735550	      1.27293025	      8.55477388
      1.57000000	     -2.09277990	     -4.30814220	     -3.62192501	     -1.17471138	      0.99763935	     -0.40406932	     -6.14677900	     10.30297328	      0.38959588	    -10.50668010	     16.70468784	     -6.36560310	     29.07418405	     -3.88304856	      5.36789144	    -21.84305703	      7.02855441	      7.96484029	    -14.81183366	      1.20077971	      8.59028635
      1.58000000	     -2.09803486	     -4.30253517	     -3.92318085	     -1.16931436	      0.99663509	     -0.40355295	     -6.49772890	     10.24203623	      0.66275799	    -10.53767119	     16.93847576	     -6.25198810	     28.99599555	     -3.81692715	      6.13125755	    -20.84463067	      6.99456425	      8.10762144	    -14.81827911	      1.13893404	      8.62270645
      1.59000000	     -2.09497877	     -4.31016503	     -4.23924128	     -1.16374085	      0.99559281	     -0.40302817	     -6.86566649	     10.18890318	      0.95452858	    -10.58011987	     17.16285990	     -6.14161098	     28.90812331	     -3.77745446	      6.95019616	    -20.00012220	      6.99734199	      8.17480272	    -14.82394435	      1.09185171	      8.64764875
      1.60000000	     -2.11433739	     -4.33720480	     -4.56840581	     -1.15798912	      0.99445701	     -0.40249367	     -7.22971933	     10.15400598	      1.28702313	    -10.61326622	     17.40255506	     -6.06454803	     28.85670310	     -3.77033424	      7.80126758	    -19.34434534	      7.01222434	      8.18638335	    -14.79152095	      1.07028114	      8.66779463
      1.61000000	     -2.06811485	     -4.36689571	     -4.89188814	     -1.15202397	      0.99339581	     -0.40200223	     -7.66873256	     10.10660950	      1.57302494	    -10.66175263	     17.58599059	     -5.91777044	     28.72436636	     -3.76184211	      8.68217211	    -18.84633510	      7.04038142	      8.12392118	    -14.82482768	      1.05009936	      8.66285165
      1.62000000	     -2.04168700	     -4.40490506	     -5.22078945	     -1.14585376	      0.99225474	     -0.40153793	     -8.10623560	     10.06167611	      1.88010026	    -10.70042621	     17.77303555	     -5.78199642	     28.63270310	     -3.76236677	      9.54410365	    -18.56858289	      7.02781954	      8.04000430	    -14.81852474	      1.04654783	      8.66002094
      1.63000000	     -2.01528053	     -4.45112990	     -5.53919427	     -1.13945983	      0.99108195	     -0.40112330	     -8.55932165	     10.01827393	      2.17665839	    -10.73868200	     17.94711613	     -5.63629256	     28.55031214	     -3.76313383	     10.35076483	    -18.48724119	      6.94523221	      7.96585895	    -14.79671905	      1.05939866	      8.61771593
      1.64000000	     -2.04138230	     -4.50141920	     -5.86645846	     -1.13286651	      0.98979784	     -0.40074354	     -8.96411043	      9.97643166	      2.49145518	    -10.78927170	     18.13277243	     -5.58970991	     28.54386078	     -3.76998966	     11.04172508	    -18.61953753	      6.75474948	      7.97688912	    -14.69682916	      1.09106027	      8.56704627
      1.65000000	     -1.99682336	     -4.57822319	     -6.10432724	     -1.12601978	      0.98861840	     -0.40059018	     -9.48125535	      9.94886689	      2.68555629	    -10.78552892	     18.20379185	     -5.37693862	     28.48810719	     -3.74121750	     11.69313854	    -18.95651400	      6.42951915	      7.99985081	    -14.66889244	      1.17983905	      8.41124609
      1.66000000	     -2.01200864	     -4.63817418	     -6.37278041	     -1.11900690	      0.98734439	     -0.40041346	     -9.92284084	      9.90286613	      2.93421948	    -10.82943185	     18.32692565	     -5.30250624	     28.52049842	     -3.71140034	     12.12897947	    -19.49296100	      5.97155800	      8.04590549	    -14.55708256	      1.25300883	      8.26001651
      1.67000000	     -2.02158761	     -4.71079242	     -6.57260974	     -1.11183434	      0.98612444	     -0.40038826	    -10.36828134	      9.86912587	      3.09072788	    -10.88093885	     18.32239455	     -5.06988295	     28.56330793	     -3.64490765	     12.55417297	    -20.18114984	      5.36547469	      8.19403568	    -14.44988400	      1.35854948	      8.03961429
      1.68000000	     -2.04916479	     -4.77059418	     -6.77903620	     -1.10453084	      0.98491291	     -0.40036281	    -10.78888745	      9.81908112	      3.26767360	    -10.95411512	     18.35282713	     -4.86519573	     28.67177541	     -3.56892627	     12.76136282	    -21.05816725	      4.69473750	      8.32903811	    -14.31722952	      1.45229165	      7.81438479
      1.69000000	     -2.09239506	     -4.82360614	     -6.98289222	     -1.09714922	      0.98376047	     -0.40029920	    -11.17263755	      9.76494120	      3.45541593	    -11.06629757	     18.33797899	     -4.62638192	     28.82918210	     -3.48554226	     12.84955595	    -22.06950411	      4.02725814	      8.44490307	    -14.17132098	      1.52811938	      7.59259844
      1.70000000	     -2.17052136	     -4.86742110	     -7.20318831	     -1.08970497	      0.98264560	     -0.40016453	    -11.49111547	      9.70332356	      3.67836740	    -11.23349816	     18.31969963	     -4.22591437	     29.06557195	     -3.40858166	     12.79603973	    -23.20825506	      3.50184777	      8.51075035	    -13.98984729	      1.58633995	      7.39240112
      1.71000000	     -2.19377931	     -4.89577789	     -7.44814050	     -1.08223956	      0.98177210	     -0.39991853	    -11.83835637	      9.61994353	      3.97128311	    -11.44988901	     18.21630218	     -4.01089210	     29.24462848	     -3.33266974	     12.65826477	    -24.37865045	      3.06053514	      8.40101103	    -13.89056648	      1.59822886	      7.23912807
      1.72000000	     -2.23583864	     -4.90462182	     -7.72030105	     -1.07469597	      0.98098431	     -0.39955509	    -12.12882513	      9.51601557	      4.31179386	    -11.73501417	     18.12596972	     -3.59524479	     29.45895792	     -3.26532752	     12.42123168	    -25.59893100	      2.89940995	      8.02605038	    -13.77030468	      1.56892587	      7.11049063
      1.73000000	     -2.22085307	     -4.91692649	     -8.01723938	     -1.06709518	      0.98044219	     -0.39910358	    -12.44236374	      9.40572077	      4.69938201	    -12.08999452	     17.93123137	     -3.29298380	     29.59695438	     -3.22274161	     12.12696729	    -26.80511150	      2.89416222	      7.65813864	    -13.73113585	      1.51771338	      7.05272096
      1.74000000	     -2.18938240	     -4.89660951	     -8.28886781	     -1.05933467	      0.98004137	     -0.39871089	    -12.73634160	      9.25759894	      5.06650299	    -12.50679517	     17.75393862	     -2.76816609	     29.68660346	     -3.13891628	     11.84447807	    -27.96115160	      3.03062455	      6.96357904	    -13.69952411	      1.43341025	      6.96179969
      1.75000000	     -2.11684280	     -4.87485417	     -8.56535989	     -1.05143090	      0.97982630	     -0.39835301	    -13.01936782	      9.09429053	      5.39836744	    -13.02599502	     17.48967921	     -2.23457432	     29.68390995	     -3.06143983	     11.54800783	    -29.04856184	      3.35606108	      6.30941410	    -13.71277502	      1.34264039	      6.91371974
      1.76000000	     -2.02922377	     -4.85611634	     -8.84793704	     -1.04337413	      0.97974862	     -0.39803297	    -13.28395497	      8.92581365	      5.75354168	    -13.61320258	     17.18270494	     -1.64263604	     29.61181042	     -2.99874971	     11.23040763	    -30.06215968	      3.78219593	      5.69189056	    -13.73454736	      1.25789701	      6.89346596
      1.77000000	     -1.93119708	     -4.82746981	     -9.13986967	     -1.03519457	      0.97980726	     -0.39777381	    -13.48423278	      8.73531171	      6.04827959	    -14.33316630	     16.81149869	     -0.93533826	     29.45130689	     -2.93595920	     10.91486845	    -30.95859314	      4.32392947	      5.07994829	    -13.76091670	      1.16976190	      6.89785845
